UoqMunThenKhung-Regular.ufo
<glyph name="boxdrawingsuplightandrightheavy" format="2">
  <advance width="1000" height="1000"/>
  <unicode hex="2515"/>
  <outline>
    <contour>
      <point x="999" y="317" type="line"/>
      <point x="478" y="317" type="line"/>
      <point x="478" y="878" type="line"/>
      <point x="519" y="878" type="line"/>
      <point x="519" y="440" type="line"/>
      <point x="999" y="440" type="line"/>
    </contour>
  </outline>
</glyph>
<glyph name="boxdrawingslightverticalandright" format="2">
  <advance width="1000" height="1000"/>
  <unicode hex="251C"/>
  <outline>
    <contour>
      <point x="999" y="360" type="line"/>
      <point x="519" y="360" type="line"/>
      <point x="519" y="-119" type="line"/>
      <point x="478" y="-119" type="line"/>
      <point x="478" y="879" type="line"/>
      <point x="519" y="879" type="line"/>
      <point x="519" y="401" type="line"/>
      <point x="999" y="401" type="line"/>
    </contour>
  </outline>
</glyph>
<glyph name="boxdrawingsupheavyandrightdownlight" format="2">
  <advance width="1000" height="1000"/>
  <unicode hex="251E"/>
  <outline>
    <contour>
      <point x="999" y="359" type="line"/>
      <point x="520" y="359" type="line"/>
      <point x="520" y="-119" type="line"/>
      <point x="479" y="-119" type="line"/>
      <point x="479" y="359" type="line"/>
      <point x="439" y="359" type="line"/>
      <point x="439" y="879" type="line"/>
      <point x="562" y="879" type="line"/>
      <point x="562" y="401" type="line"/>
      <point x="999" y="401" type="line"/>
    </contour>
  </outline>
</glyph>
<glyph name="boxdrawingsverticalheavyandrightlight" format="2">
  <advance width="1000" height="1000"/>
  <unicode hex="2520"/>
  <outline>
    <contour>
      <point x="999" y="360" type="line"/>
      <point x="561" y="360" type="line"/>
      <point x="561" y="-119" type="line"/>
      <point x="437" y="-119" type="line"/>
      <point x="437" y="879" type="line"/>
      <point x="561" y="879" type="line"/>
      <point x="561" y="401" type="line"/>
      <point x="999" y="401" type="line"/>
    </contour>
  </outline>
</glyph>
<glyph name="boxdrawingsverticalsingleandhorizontaldouble" format="2">
  <advance width="1000" height="1000"/>
  <unicode hex="256A"/>
  <outline>
    <contour>
      <point x="1000" y="142" type="line"/>
      <point x="556" y="142" type="line"/>
      <point x="556" y="-117" type="line"/>
      <point x="444" y="-117" type="line"/>
      <point x="444" y="142" type="line"/>
      <point x="1" y="142" type="line"/>
      <point x="1" y="253" type="line"/>
      <point x="444" y="253" type="line"/>
      <point x="444" y="513" type="line"/>
      <point x="1" y="513" type="line"/>
      <point x="1" y="625" type="line"/>
      <point x="444" y="625" type="line"/>
      <point x="444" y="883" type="line"/>
      <point x="556" y="883" type="line"/>
      <point x="556" y="625" type="line"/>
      <point x="1000" y="625" type="line"/>
      <point x="1000" y="513" type="line"/>
      <point x="556" y="513" type="line"/>
      <point x="556" y="253" type="line"/>
      <point x="1000" y="253" type="line"/>
    </contour>
  </outline>
</glyph>
<glyph name="boxdrawingslightarcdownandleft" format="2">
  <advance width="1000" height="1000"/>
  <unicode hex="256E"/>
  <outline>
    <contour>
      <point x="441" y="-120" type="line"/>
      <point x="441" y="-29"/>
      <point x="372" y="131"/>
      <point x="251" y="252"/>
      <point x="91" y="321"/>
      <point x="0" y="321" type="qcurve"/>
      <point x="0" y="433" type="line"/>
      <point x="114" y="433"/>
      <point x="314" y="346"/>
      <point x="466" y="194"/>
      <point x="553" y="-6"/>
      <point x="553" y="-120" type="qcurve"/>
    </contour>
  </outline>
</glyph>
<glyph name="boxdrawingslightarcupandright" format="2">
  <advance width="1000" height="1000"/>
  <unicode hex="2570"/>
  <outline>
    <contour>
      <point x="999" y="326" type="line"/>
      <point x="884" y="326"/>
      <point x="683" y="412"/>
      <point x="531" y="564"/>
      <point x="445" y="765"/>
      <point x="445" y="880" type="qcurve"/>
      <point x="557" y="880" type="line"/>
      <point x="557" y="789"/>
      <point x="626" y="628"/>
      <point x="748" y="506"/>
      <point x="908" y="437"/>
      <point x="999" y="437" type="qcurve"/>
    </contour>
  </outline>
</glyph>
<glyph name="boxdrawingslightdiagonalupperlefttolowerright" format="2">
  <advance width="1000" height="1000"/>
  <unicode hex="2572"/>
  <outline>
    <contour>
      <point x="920" y="-45" type="line"/>
      <point x="879" y="-84" type="line"/>
      <point x="73" y="773" type="line"/>
      <point x="114" y="812" type="line"/>
    </contour>
  </outline>
</glyph>
<glyph name="lowerfiveeighthsblock" format="2">
  <advance width="1000" height="1000"/>
  <unicode hex="2585"/>
  <outline>
    <contour>
      <point x="999" y="-120" type="line"/>
      <point x="0" y="-120" type="line"/>
      <point x="0" y="507" type="line"/>
      <point x="999" y="507" type="line"/>
    </contour>
  </outline>
</glyph>
<glyph name="fullblock" format="2">
  <advance width="1000" height="1000"/>
  <unicode hex="2588"/>
  <outline>
    <contour>
      <point x="1000" y="-121" type="line"/>
      <point x="1" y="-121" type="line"/>
      <point x="1" y="880" type="line"/>
      <point x="1000" y="880" type="line"/>
    </contour>
  </outline>
</glyph>
<glyph name="leftfiveeighthsblock" format="2">
  <advance width="1000" height="1000"/>
  <unicode hex="258B"/>
  <outline>
    <contour>
      <point x="626" y="-120" type="line"/>
      <point x="-1" y="-120" type="line"/>
      <point x="-1" y="878" type="line"/>
      <point x="626" y="878" type="line"/>
    </contour>
  </outline>
</glyph>
<glyph name="u4EFD" format="2">
  <advance width="1000" height="1000"/>
  <unicode hex="4EFD"/>
  <outline>
    <contour>
      <point x="427" y="406" type="line"/>
      <point x="839" y="406" type="line"/>
      <point x="836" y="350"/>
      <point x="834" y="297" type="qcurve"/>
      <point x="831" y="243"/>
      <point x="826" y="187" type="qcurve"/>
      <point x="822" y="129"/>
      <point x="806" y="24"/>
      <point x="792" y="-8" type="qcurve"/>
      <point x="779" y="-38"/>
      <point x="736" y="-77"/>
      <point x="701" y="-77" type="qcurve"/>
      <point x="670" y="-77"/>
      <point x="607" y="-45"/>
      <point x="553" y="4"/>
      <point x="538" y="30" type="qcurve"/>
      <point x="536" y="33"/>
      <point x="536" y="37" type="qcurve"/>
      <point x="536" y="40"/>
      <point x="542" y="40" type="qcurve"/>
      <point x="548" y="40"/>
      <point x="560" y="34" type="qcurve"/>
      <point x="566" y="32"/>
      <point x="580" y="24"/>
      <point x="588" y="22" type="qcurve"/>
      <point x="605" y="15"/>
      <point x="641" y="3"/>
      <point x="656" y="3" type="qcurve"/>
      <point x="672" y="3"/>
      <point x="687" y="24"/>
      <point x="692" y="40" type="qcurve"/>
      <point x="700" y="63"/>
      <point x="711" y="147"/>
      <point x="719" y="246"/>
      <point x="723" y="335"/>
      <point x="724" y="364" type="qcurve"/>
      <point x="526" y="364" type="line"/>
      <point x="645" y="322" type="line"/>
      <point x="626" y="245"/>
      <point x="547" y="104"/>
      <point x="435" y="-4"/>
      <point x="362" y="-34" type="qcurve"/>
      <point x="340" y="-43"/>
      <point x="298" y="-55"/>
      <point x="273" y="-55" type="qcurve"/>
      <point x="268" y="-55"/>
      <point x="260" y="-53"/>
      <point x="260" y="-47" type="qcurve"/>
      <point x="260" y="-46"/>
      <point x="271" y="-38"/>
      <point x="280" y="-34" type="qcurve"/>
      <point x="285" y="-32"/>
      <point x="291" y="-27"/>
      <point x="295" y="-26" type="qcurve"/>
      <point x="303" y="-21"/>
      <point x="305" y="-21" type="qcurve"/>
      <point x="333" y="-2"/>
      <point x="373" y="34"/>
      <point x="396" y="61" type="qcurve"/>
      <point x="450" y="125"/>
      <point x="518" y="276"/>
      <point x="534" y="364" type="qcurve"/>
      <point x="427" y="364" type="line"/>
    </contour>
    <contour>
      <point x="379" y="768" type="line"/>
      <point x="362" y="726"/>
      <point x="305" y="623"/>
      <point x="240" y="526"/>
      <point x="207" y="487" type="qcurve"/>
      <point x="268" y="487" type="line"/>
      <point x="268" y="-61" type="line"/>
      <point x="151" y="-61" type="line"/>
      <point x="151" y="419" type="line"/>
      <point x="138" y="410"/>
      <point x="106" y="385"/>
      <point x="89" y="373" type="qcurve"/>
      <point x="70" y="360"/>
      <point x="31" y="337"/>
      <point x="20" y="337" type="qcurve"/>
      <point x="12" y="337"/>
      <point x="12" y="343" type="qcurve"/>
      <point x="12" y="347"/>
      <point x="16" y="353" type="qcurve"/>
      <point x="43" y="389"/>
      <point x="93" y="463"/>
      <point x="115" y="503" type="qcurve"/>
      <point x="156" y="577"/>
      <point x="222" y="738"/>
      <point x="243" y="820" type="qcurve"/>
    </contour>
    <contour>
      <point x="976" y="418" type="qcurve"/>
      <point x="976" y="400"/>
      <point x="953" y="363"/>
      <point x="928" y="363" type="qcurve"/>
      <point x="915" y="363"/>
      <point x="885" y="374"/>
      <point x="874" y="381" type="qcurve"/>
      <point x="815" y="418"/>
      <point x="734" y="535"/>
      <point x="678" y="670"/>
      <point x="658" y="732" type="qcurve"/>
      <point x="801" y="781" type="line"/>
      <point x="809" y="729"/>
      <point x="832" y="605"/>
      <point x="867" y="486"/>
      <point x="895" y="435" type="qcurve"/>
      <point x="903" y="448"/>
      <point x="923" y="459"/>
      <point x="932" y="459" type="qcurve"/>
      <point x="949" y="459"/>
      <point x="976" y="434"/>
    </contour>
    <contour>
      <point x="454" y="439"/>
      <point x="386" y="387" type="qcurve"/>
      <point x="380" y="382"/>
      <point x="346" y="360"/>
      <point x="312" y="342"/>
      <point x="303" y="342" type="qcurve"/>
      <point x="300" y="342"/>
      <point x="292" y="347"/>
      <point x="292" y="349" type="qcurve"/>
      <point x="292" y="352"/>
      <point x="297" y="359" type="qcurve"/>
      <point x="301" y="365"/>
      <point x="304" y="368" type="qcurve"/>
      <point x="336" y="409"/>
      <point x="395" y="523"/>
      <point x="442" y="645"/>
      <point x="469" y="734"/>
      <point x="473" y="769" type="qcurve"/>
      <point x="609" y="731" type="line"/>
      <point x="597" y="693"/>
      <point x="549" y="571"/>
    </contour>
  </outline>
</glyph>
<glyph name="u518D" format="2">
  <advance width="1000" height="1000"/>
  <unicode hex="518D"/>
  <outline>
    <contour>
      <point x="439" y="236" type="line"/>
      <point x="439" y="352" type="line"/>
      <point x="295" y="352" type="line"/>
      <point x="295" y="236" type="line"/>
    </contour>
    <contour>
      <point x="439" y="401" type="line"/>
      <point x="439" y="519" type="line"/>
      <point x="295" y="519" type="line"/>
      <point x="295" y="401" type="line"/>
    </contour>
    <contour>
      <point x="701" y="236" type="line"/>
      <point x="701" y="519" type="line"/>
      <point x="556" y="519" type="line"/>
      <point x="556" y="401" type="line"/>
      <point x="596" y="401" type="line"/>
      <point x="599" y="415"/>
      <point x="627" y="431"/>
      <point x="640" y="431" type="qcurve"/>
      <point x="656" y="431"/>
      <point x="681" y="406"/>
      <point x="681" y="390" type="qcurve"/>
      <point x="681" y="374"/>
      <point x="655" y="352"/>
      <point x="639" y="352" type="qcurve"/>
      <point x="556" y="352" type="line"/>
      <point x="556" y="236" type="line"/>
    </contour>
    <contour>
      <point x="996" y="243" type="qcurve"/>
      <point x="996" y="219"/>
      <point x="966" y="184"/>
      <point x="941" y="184" type="qcurve"/>
      <point x="823" y="184" type="line"/>
      <point x="823" y="81" type="line"/>
      <point x="823" y="49"/>
      <point x="818" y="-14"/>
      <point x="797" y="-65"/>
      <point x="750" y="-96"/>
      <point x="709" y="-96" type="qcurve"/>
      <point x="686" y="-96"/>
      <point x="617" y="-69"/>
      <point x="553" y="-31"/>
      <point x="537" y="-15" type="qcurve"/>
      <point x="536" y="-13"/>
      <point x="532" y="-9"/>
      <point x="532" y="-6" type="qcurve"/>
      <point x="532" y="-3"/>
      <point x="538" y="-2"/>
      <point x="540" y="-2" type="qcurve"/>
      <point x="542" y="-2"/>
      <point x="544" y="-2"/>
      <point x="545" y="-2" type="qcurve"/>
      <point x="570" y="-6"/>
      <point x="619" y="-13"/>
      <point x="644" y="-13" type="qcurve"/>
      <point x="672" y="-13"/>
      <point x="695" y="14"/>
      <point x="701" y="56"/>
      <point x="701" y="77" type="qcurve"/>
      <point x="701" y="184" type="line"/>
      <point x="295" y="184" type="line"/>
      <point x="295" y="-85" type="line"/>
      <point x="175" y="-85" type="line"/>
      <point x="175" y="184" type="line"/>
      <point x="27" y="184" type="line"/>
      <point x="27" y="236" type="line"/>
      <point x="175" y="236" type="line"/>
      <point x="175" y="570" type="line"/>
      <point x="436" y="570" type="line"/>
      <point x="436" y="701" type="line"/>
      <point x="91" y="701" type="line"/>
      <point x="91" y="751" type="line"/>
      <point x="802" y="750" type="line"/>
      <point x="804" y="773"/>
      <point x="842" y="816"/>
      <point x="866" y="816" type="qcurve"/>
      <point x="889" y="816"/>
      <point x="936" y="786"/>
      <point x="936" y="760" type="qcurve"/>
      <point x="936" y="738"/>
      <point x="905" y="701"/>
      <point x="882" y="701" type="qcurve"/>
      <point x="558" y="701" type="line"/>
      <point x="558" y="570" type="line"/>
      <point x="823" y="570" type="line"/>
      <point x="823" y="236" type="line"/>
      <point x="878" y="236" type="line"/>
      <point x="882" y="258"/>
      <point x="912" y="294"/>
      <point x="936" y="294" type="qcurve"/>
      <point x="956" y="294"/>
      <point x="996" y="264"/>
    </contour>
  </outline>
</glyph>
<glyph name="u5224" format="2">
  <advance width="1000" height="1000"/>
  <unicode hex="5224"/>
  <outline>
    <contour>
      <point x="582" y="280" type="qcurve"/>
      <point x="582" y="258"/>
      <point x="547" y="232"/>
      <point x="526" y="232" type="qcurve"/>
      <point x="368" y="232" type="line"/>
      <point x="368" y="-78" type="line"/>
      <point x="250" y="-78" type="line"/>
      <point x="250" y="232" type="line"/>
      <point x="31" y="232" type="line"/>
      <point x="31" y="276" type="line"/>
      <point x="250" y="276" type="line"/>
      <point x="250" y="418" type="line"/>
      <point x="90" y="418" type="line"/>
      <point x="90" y="463" type="line"/>
      <point x="250" y="463" type="line"/>
      <point x="250" y="808" type="line"/>
      <point x="368" y="808" type="line"/>
      <point x="368" y="463" type="line"/>
      <point x="438" y="463" type="line"/>
      <point x="440" y="485"/>
      <point x="468" y="515"/>
      <point x="490" y="515" type="qcurve"/>
      <point x="510" y="515"/>
      <point x="542" y="485"/>
      <point x="542" y="465" type="qcurve"/>
      <point x="542" y="448"/>
      <point x="514" y="418"/>
      <point x="496" y="418" type="qcurve"/>
      <point x="368" y="418" type="line"/>
      <point x="368" y="276" type="line"/>
      <point x="466" y="276" type="line"/>
      <point x="466" y="300"/>
      <point x="499" y="335"/>
      <point x="524" y="335" type="qcurve"/>
      <point x="544" y="335"/>
      <point x="582" y="301"/>
    </contour>
    <contour>
      <point x="906" y="109" type="line"/>
      <point x="906" y="73"/>
      <point x="899" y="4"/>
      <point x="875" y="-52"/>
      <point x="822" y="-86"/>
      <point x="777" y="-86" type="qcurve"/>
      <point x="750" y="-86"/>
      <point x="684" y="-56"/>
      <point x="624" y="-13"/>
      <point x="605" y="5" type="qcurve"/>
      <point x="604" y="7"/>
      <point x="599" y="11"/>
      <point x="599" y="14" type="qcurve"/>
      <point x="599" y="18"/>
      <point x="606" y="20"/>
      <point x="608" y="20" type="qcurve"/>
      <point x="612" y="20"/>
      <point x="638" y="11"/>
      <point x="644" y="9" type="qcurve"/>
      <point x="665" y="4"/>
      <point x="706" y="-2"/>
      <point x="728" y="-2" type="qcurve"/>
      <point x="756" y="-2"/>
      <point x="778" y="32"/>
      <point x="783" y="79"/>
      <point x="783" y="99" type="qcurve"/>
      <point x="783" y="791" type="line"/>
      <point x="906" y="791" type="line"/>
    </contour>
    <contour>
      <point x="727" y="205" type="line"/>
      <point x="614" y="205" type="line"/>
      <point x="614" y="737" type="line"/>
      <point x="727" y="737" type="line"/>
    </contour>
    <contour>
      <point x="235" y="706" type="qcurve"/>
      <point x="235" y="698"/>
      <point x="220" y="667"/>
      <point x="199" y="631"/>
      <point x="179" y="601"/>
      <point x="174" y="595" type="qcurve"/>
      <point x="138" y="546"/>
      <point x="90" y="510" type="qcurve"/>
      <point x="86" y="507"/>
      <point x="62" y="489"/>
      <point x="38" y="475"/>
      <point x="32" y="475" type="qcurve"/>
      <point x="22" y="475"/>
      <point x="22" y="484" type="qcurve"/>
      <point x="22" y="490"/>
      <point x="32" y="508"/>
      <point x="35" y="513" type="qcurve"/>
      <point x="45" y="535"/>
      <point x="66" y="579"/>
      <point x="74" y="601" type="qcurve"/>
      <point x="88" y="638"/>
      <point x="108" y="713"/>
      <point x="116" y="751" type="qcurve"/>
      <point x="121" y="750"/>
      <point x="156" y="740"/>
      <point x="199" y="727"/>
      <point x="231" y="718"/>
      <point x="232" y="717" type="qcurve"/>
      <point x="235" y="713"/>
    </contour>
    <contour>
      <point x="601" y="518" type="qcurve"/>
      <point x="601" y="515"/>
      <point x="594" y="509"/>
      <point x="591" y="509" type="qcurve"/>
      <point x="585" y="509"/>
      <point x="561" y="521"/>
      <point x="539" y="536"/>
      <point x="534" y="539" type="qcurve"/>
      <point x="488" y="572"/>
      <point x="453" y="615" type="qcurve"/>
      <point x="449" y="620"/>
      <point x="429" y="647"/>
      <point x="409" y="679"/>
      <point x="395" y="707"/>
      <point x="395" y="713" type="qcurve"/>
      <point x="395" y="720"/>
      <point x="398" y="722" type="qcurve"/>
      <point x="399" y="723"/>
      <point x="429" y="732"/>
      <point x="470" y="743"/>
      <point x="504" y="752"/>
      <point x="509" y="753" type="qcurve"/>
      <point x="523" y="697"/>
      <point x="559" y="593"/>
      <point x="588" y="544" type="qcurve"/>
      <point x="591" y="540"/>
      <point x="601" y="523"/>
    </contour>
  </outline>
</glyph>
<glyph name="u5545" format="2">
  <advance width="1000" height="1000"/>
  <unicode hex="5545"/>
  <outline>
    <contour>
      <point x="231" y="668" type="line"/>
      <point x="167" y="668" type="line"/>
      <point x="167" y="200" type="line"/>
      <point x="184" y="200" type="line"/>
      <point x="205" y="200"/>
      <point x="225" y="232"/>
      <point x="231" y="273"/>
      <point x="231" y="288" type="qcurve"/>
    </contour>
    <contour>
      <point x="778" y="537" type="line"/>
      <point x="483" y="537" type="line"/>
      <point x="483" y="430" type="line"/>
      <point x="649" y="430" type="line"/>
      <point x="652" y="448"/>
      <point x="679" y="472"/>
      <point x="697" y="472" type="qcurve"/>
      <point x="714" y="472"/>
      <point x="743" y="445"/>
      <point x="743" y="428" type="qcurve"/>
      <point x="743" y="412"/>
      <point x="714" y="387"/>
      <point x="699" y="387" type="qcurve"/>
      <point x="483" y="387" type="line"/>
      <point x="483" y="278" type="line"/>
      <point x="726" y="278" type="line"/>
      <point x="748" y="278"/>
      <point x="770" y="308"/>
      <point x="778" y="350"/>
      <point x="778" y="366" type="qcurve"/>
    </contour>
    <contour>
      <point x="345" y="391" type="qcurve"/>
      <point x="345" y="357"/>
      <point x="339" y="271"/>
      <point x="311" y="195"/>
      <point x="279" y="174" type="qcurve"/>
      <point x="257" y="160"/>
      <point x="206" y="154"/>
      <point x="180" y="154" type="qcurve"/>
      <point x="54" y="154" type="line"/>
      <point x="54" y="714" type="line"/>
      <point x="345" y="714" type="line"/>
      <point x="344" y="633"/>
      <point x="345" y="472"/>
    </contour>
    <contour>
      <point x="993" y="152" type="qcurve"/>
      <point x="993" y="122"/>
      <point x="953" y="97"/>
      <point x="926" y="97" type="qcurve"/>
      <point x="673" y="97" type="line"/>
      <point x="674" y="-88" type="line"/>
      <point x="557" y="-88" type="line"/>
      <point x="557" y="97" type="line"/>
      <point x="270" y="97" type="line"/>
      <point x="270" y="144" type="line"/>
      <point x="557" y="144" type="line"/>
      <point x="557" y="234" type="line"/>
      <point x="377" y="234" type="line"/>
      <point x="377" y="582" type="line"/>
      <point x="549" y="582" type="line"/>
      <point x="549" y="838" type="line"/>
      <point x="666" y="838" type="line"/>
      <point x="666" y="710" type="line"/>
      <point x="820" y="710" type="line"/>
      <point x="822" y="736"/>
      <point x="860" y="774"/>
      <point x="885" y="774" type="qcurve"/>
      <point x="908" y="774"/>
      <point x="947" y="743"/>
      <point x="947" y="718" type="qcurve"/>
      <point x="947" y="692"/>
      <point x="909" y="665"/>
      <point x="885" y="665" type="qcurve"/>
      <point x="666" y="665" type="line"/>
      <point x="666" y="582" type="line"/>
      <point x="894" y="582" type="line"/>
      <point x="894" y="380" type="line"/>
      <point x="894" y="309"/>
      <point x="816" y="234"/>
      <point x="745" y="234" type="qcurve"/>
      <point x="673" y="234" type="line"/>
      <point x="673" y="144" type="line"/>
      <point x="864" y="144" type="line"/>
      <point x="866" y="170"/>
      <point x="903" y="209"/>
      <point x="929" y="209" type="qcurve"/>
      <point x="952" y="209"/>
      <point x="993" y="177"/>
    </contour>
  </outline>
</glyph>
<glyph name="u6252" format="2">
  <advance width="1000" height="1000"/>
  <unicode hex="6252"/>
  <outline>
    <contour>
      <point x="267" y="591" type="line"/>
      <point x="311" y="591" type="line"/>
      <point x="313" y="609"/>
      <point x="338" y="634"/>
      <point x="357" y="634" type="qcurve"/>
      <point x="375" y="634"/>
      <point x="405" y="611"/>
      <point x="405" y="591" type="qcurve"/>
      <point x="405" y="565"/>
      <point x="373" y="546"/>
      <point x="328" y="544"/>
      <point x="310" y="544" type="qcurve"/>
      <point x="267" y="544" type="line"/>
      <point x="267" y="406" type="line"/>
      <point x="325" y="431"/>
      <point x="379" y="461" type="qcurve"/>
      <point x="380" y="462"/>
      <point x="382" y="462" type="qcurve"/>
      <point x="389" y="462"/>
      <point x="389" y="458" type="qcurve"/>
      <point x="389" y="445"/>
      <point x="355" y="407" type="qcurve"/>
      <point x="314" y="362"/>
      <point x="268" y="329" type="qcurve"/>
      <point x="268" y="92" type="line"/>
      <point x="268" y="11"/>
      <point x="249" y="-31" type="qcurve"/>
      <point x="226" y="-87"/>
      <point x="153" y="-87" type="qcurve"/>
      <point x="123" y="-87"/>
      <point x="64" y="-45" type="qcurve"/>
      <point x="29" y="-21"/>
      <point x="27" y="-16"/>
      <point x="23" y="-11"/>
      <point x="23" y="-10" type="qcurve"/>
      <point x="23" y="-6"/>
      <point x="28" y="-6" type="qcurve"/>
      <point x="36" y="-6"/>
      <point x="53" y="-10" type="qcurve"/>
      <point x="77" y="-15"/>
      <point x="94" y="-15" type="qcurve"/>
      <point x="148" y="-15"/>
      <point x="156" y="44" type="qcurve"/>
      <point x="159" y="65"/>
      <point x="159" y="86" type="qcurve"/>
      <point x="159" y="275" type="line"/>
      <point x="146" y="269"/>
      <point x="106" y="248"/>
      <point x="66" y="230"/>
      <point x="57" y="228" type="qcurve"/>
      <point x="14" y="327" type="line"/>
      <point x="50" y="336"/>
      <point x="122" y="361"/>
      <point x="159" y="373" type="qcurve"/>
      <point x="158" y="417"/>
      <point x="158" y="545" type="qcurve"/>
      <point x="27" y="545" type="line"/>
      <point x="27" y="591" type="line"/>
      <point x="158" y="591" type="line"/>
      <point x="157" y="800" type="line"/>
      <point x="267" y="800" type="line"/>
    </contour>
    <contour>
      <point x="998" y="-8" type="qcurve"/>
      <point x="998" y="-28"/>
      <point x="970" y="-58"/>
      <point x="948" y="-58" type="qcurve"/>
      <point x="924" y="-58"/>
      <point x="879" y="-38"/>
      <point x="861" y="-24" type="qcurve"/>
      <point x="805" y="20"/>
      <point x="723" y="150"/>
      <point x="669" y="304"/>
      <point x="637" y="467"/>
      <point x="622" y="626"/>
      <point x="620" y="694" type="qcurve"/>
      <point x="620" y="738" type="line"/>
      <point x="768" y="738" type="line"/>
      <point x="767" y="715"/>
      <point x="766" y="678"/>
      <point x="766" y="655" type="qcurve"/>
      <point x="766" y="579"/>
      <point x="776" y="409"/>
      <point x="805" y="239"/>
      <point x="860" y="82"/>
      <point x="907" y="16" type="qcurve"/>
      <point x="916" y="25"/>
      <point x="938" y="36"/>
      <point x="949" y="36" type="qcurve"/>
      <point x="967" y="36"/>
      <point x="998" y="8"/>
    </contour>
    <contour>
      <point x="496" y="174" type="qcurve"/>
      <point x="445" y="59"/>
      <point x="351" y="-21" type="qcurve"/>
      <point x="344" y="-27"/>
      <point x="313" y="-53"/>
      <point x="276" y="-75"/>
      <point x="269" y="-75" type="qcurve"/>
      <point x="265" y="-75"/>
      <point x="256" y="-71"/>
      <point x="256" y="-68" type="qcurve"/>
      <point x="256" y="-62"/>
      <point x="261" y="-55" type="qcurve"/>
      <point x="264" y="-51" type="line"/>
      <point x="282" y="-28"/>
      <point x="317" y="17"/>
      <point x="331" y="41" type="qcurve"/>
      <point x="379" y="124"/>
      <point x="427" y="321"/>
      <point x="452" y="498"/>
      <point x="455" y="730" type="qcurve"/>
      <point x="592" y="708" type="line"/>
      <point x="590" y="453"/>
      <point x="558" y="343" type="qcurve"/>
      <point x="543" y="292"/>
      <point x="511" y="208"/>
    </contour>
  </outline>
</glyph>
<glyph name="u6260" format="2">
  <advance width="1000" height="1000"/>
  <unicode hex="6260"/>
  <outline>
    <contour>
      <point x="411" y="456" type="qcurve"/>
      <point x="411" y="454"/>
      <point x="409" y="450"/>
      <point x="408" y="448" type="qcurve"/>
      <point x="396" y="429"/>
      <point x="353" y="385"/>
      <point x="306" y="346"/>
      <point x="286" y="333" type="qcurve"/>
      <point x="286" y="110" type="line"/>
      <point x="286" y="65"/>
      <point x="271" y="-18"/>
      <point x="218" y="-71"/>
      <point x="162" y="-71" type="qcurve"/>
      <point x="144" y="-71"/>
      <point x="94" y="-48"/>
      <point x="47" y="-18"/>
      <point x="33" y="-6" type="qcurve"/>
      <point x="32" y="-4"/>
      <point x="26" y="0"/>
      <point x="26" y="2" type="qcurve"/>
      <point x="26" y="4"/>
      <point x="29" y="5"/>
      <point x="30" y="6" type="qcurve"/>
      <point x="49" y="5"/>
      <point x="85" y="-7"/>
      <point x="104" y="-7" type="qcurve"/>
      <point x="137" y="-7"/>
      <point x="164" y="28"/>
      <point x="170" y="79"/>
      <point x="170" y="104" type="qcurve"/>
      <point x="170" y="281" type="line"/>
      <point x="147" y="267"/>
      <point x="86" y="239"/>
      <point x="60" y="233" type="qcurve"/>
      <point x="11" y="329" type="line"/>
      <point x="52" y="340"/>
      <point x="130" y="366"/>
      <point x="170" y="377" type="qcurve"/>
      <point x="169" y="422"/>
      <point x="169" y="512"/>
      <point x="169" y="557" type="qcurve"/>
      <point x="34" y="557" type="line"/>
      <point x="34" y="603" type="line"/>
      <point x="169" y="603" type="line"/>
      <point x="169" y="810" type="line"/>
      <point x="285" y="810" type="line"/>
      <point x="285" y="603" type="line"/>
      <point x="322" y="603" type="line"/>
      <point x="324" y="620"/>
      <point x="347" y="644"/>
      <point x="364" y="644" type="qcurve"/>
      <point x="382" y="644"/>
      <point x="410" y="621"/>
      <point x="410" y="602" type="qcurve"/>
      <point x="410" y="576"/>
      <point x="382" y="557"/>
      <point x="342" y="556"/>
      <point x="323" y="556" type="qcurve"/>
      <point x="285" y="556" type="line"/>
      <point x="285" y="409" type="line"/>
      <point x="315" y="421"/>
      <point x="375" y="448"/>
      <point x="405" y="461" type="qcurve"/>
      <point x="411" y="461"/>
    </contour>
    <contour>
      <point x="992" y="-16" type="qcurve"/>
      <point x="992" y="-35"/>
      <point x="956" y="-59"/>
      <point x="939" y="-59" type="qcurve"/>
      <point x="918" y="-59"/>
      <point x="861" y="-38"/>
      <point x="808" y="-8"/>
      <point x="791" y="5" type="qcurve"/>
      <point x="755" y="33"/>
      <point x="694" y="101"/>
      <point x="666" y="137" type="qcurve"/>
      <point x="613" y="76"/>
      <point x="503" y="1"/>
      <point x="426" y="-26" type="qcurve"/>
      <point x="408" y="-32"/>
      <point x="350" y="-43"/>
      <point x="331" y="-43" type="qcurve"/>
      <point x="327" y="-43"/>
      <point x="318" y="-39"/>
      <point x="318" y="-35" type="qcurve"/>
      <point x="318" y="-30"/>
      <point x="332" y="-23"/>
      <point x="335" y="-22" type="qcurve"/>
      <point x="364" y="-9"/>
      <point x="414" y="17"/>
      <point x="439" y="36" type="qcurve"/>
      <point x="467" y="58"/>
      <point x="530" y="122"/>
      <point x="586" y="192"/>
      <point x="602" y="223" type="qcurve"/>
      <point x="495" y="403"/>
      <point x="446" y="602" type="qcurve"/>
      <point x="559" y="652" type="line"/>
      <point x="562" y="629"/>
      <point x="568" y="608" type="qcurve"/>
      <point x="575" y="614"/>
      <point x="604" y="641"/>
      <point x="635" y="665"/>
      <point x="642" y="665" type="qcurve"/>
      <point x="649" y="665"/>
      <point x="654" y="660" type="qcurve"/>
      <point x="660" y="654"/>
      <point x="681" y="620"/>
      <point x="701" y="579"/>
      <point x="715" y="543"/>
      <point x="715" y="534" type="qcurve"/>
      <point x="715" y="515"/>
      <point x="696" y="515" type="qcurve"/>
      <point x="692" y="515"/>
      <point x="658" y="533"/>
      <point x="616" y="559"/>
      <point x="580" y="581"/>
      <point x="573" y="585" type="qcurve"/>
      <point x="589" y="520"/>
      <point x="634" y="391"/>
      <point x="664" y="331" type="qcurve"/>
      <point x="665" y="331" type="line"/>
      <point x="700" y="414"/>
      <point x="746" y="605"/>
      <point x="752" y="695" type="qcurve"/>
      <point x="415" y="695" type="line"/>
      <point x="415" y="741" type="line"/>
      <point x="886" y="741" type="line"/>
      <point x="886" y="712"/>
      <point x="878" y="645"/>
      <point x="873" y="616" type="qcurve"/>
      <point x="853" y="514"/>
      <point x="784" y="316"/>
      <point x="731" y="225" type="qcurve"/>
      <point x="761" y="169"/>
      <point x="849" y="46"/>
      <point x="895" y="2" type="qcurve"/>
      <point x="911" y="36"/>
      <point x="945" y="36" type="qcurve"/>
      <point x="967" y="36"/>
      <point x="992" y="4"/>
    </contour>
  </outline>
</glyph>
<glyph name="u677E" format="2">
  <advance width="1000" height="1000"/>
  <unicode hex="677E"/>
  <outline>
    <contour>
      <point x="429" y="281" type="qcurve"/>
      <point x="429" y="268"/>
      <point x="416" y="268" type="qcurve"/>
      <point x="409" y="268"/>
      <point x="377" y="291"/>
      <point x="340" y="323"/>
      <point x="309" y="353"/>
      <point x="303" y="359" type="qcurve"/>
      <point x="303" y="-72" type="line"/>
      <point x="189" y="-72" type="line"/>
      <point x="189" y="355" type="line"/>
      <point x="182" y="330"/>
      <point x="145" y="265"/>
      <point x="95" y="201"/>
      <point x="41" y="151"/>
      <point x="17" y="141" type="qcurve"/>
      <point x="16" y="141"/>
      <point x="14" y="140"/>
      <point x="13" y="140" type="qcurve"/>
      <point x="4" y="140"/>
      <point x="4" y="147" type="qcurve"/>
      <point x="4" y="149"/>
      <point x="17" y="175"/>
      <point x="31" y="203"/>
      <point x="33" y="208" type="qcurve"/>
      <point x="62" y="275"/>
      <point x="97" y="413"/>
      <point x="108" y="484" type="qcurve"/>
      <point x="128" y="479"/>
      <point x="169" y="468"/>
      <point x="189" y="463" type="qcurve"/>
      <point x="189" y="537" type="line"/>
      <point x="59" y="537" type="line"/>
      <point x="59" y="578" type="line"/>
      <point x="189" y="578" type="line"/>
      <point x="189" y="793" type="line"/>
      <point x="303" y="793" type="line"/>
      <point x="303" y="578" type="line"/>
      <point x="321" y="578" type="line"/>
      <point x="325" y="597"/>
      <point x="348" y="622"/>
      <point x="368" y="622" type="qcurve"/>
      <point x="386" y="622"/>
      <point x="414" y="596"/>
      <point x="414" y="578" type="qcurve"/>
      <point x="414" y="557"/>
      <point x="383" y="537"/>
      <point x="364" y="537" type="qcurve"/>
      <point x="303" y="537" type="line"/>
      <point x="303" y="446" type="line"/>
      <point x="316" y="453"/>
      <point x="341" y="465"/>
      <point x="354" y="472" type="qcurve"/>
      <point x="367" y="425"/>
      <point x="408" y="334"/>
      <point x="427" y="290" type="qcurve"/>
      <point x="429" y="284"/>
    </contour>
    <contour>
      <point x="927" y="-19" type="qcurve"/>
      <point x="927" y="-45"/>
      <point x="886" y="-78"/>
      <point x="861" y="-78" type="qcurve"/>
      <point x="843" y="-78"/>
      <point x="808" y="-53"/>
      <point x="808" y="-34" type="qcurve"/>
      <point x="808" y="-12"/>
      <point x="835" y="15"/>
      <point x="856" y="18" type="qcurve"/>
      <point x="845" y="32"/>
      <point x="822" y="56"/>
      <point x="810" y="69" type="qcurve"/>
      <point x="787" y="49"/>
      <point x="740" y="18"/>
      <point x="710" y="10" type="qcurve"/>
      <point x="639" y="-9"/>
      <point x="493" y="-33"/>
      <point x="420" y="-40" type="qcurve"/>
      <point x="385" y="44" type="line"/>
      <point x="405" y="49"/>
      <point x="432" y="66"/>
      <point x="442" y="84" type="qcurve"/>
      <point x="473" y="136"/>
      <point x="529" y="261"/>
      <point x="577" y="391"/>
      <point x="594" y="448" type="qcurve"/>
      <point x="623" y="436"/>
      <point x="684" y="413"/>
      <point x="712" y="398" type="qcurve"/>
      <point x="714" y="397"/>
      <point x="719" y="393"/>
      <point x="719" y="389" type="qcurve"/>
      <point x="719" y="384"/>
      <point x="715" y="378" type="qcurve"/>
      <point x="672" y="292"/>
      <point x="565" y="130"/>
      <point x="508" y="53" type="qcurve"/>
      <point x="578" y="56"/>
      <point x="715" y="70"/>
      <point x="781" y="95" type="qcurve"/>
      <point x="754" y="118"/>
      <point x="697" y="157"/>
      <point x="668" y="176" type="qcurve"/>
      <point x="757" y="250" type="line"/>
      <point x="783" y="229"/>
      <point x="841" y="166"/>
      <point x="894" y="92"/>
      <point x="927" y="16"/>
    </contour>
    <contour>
      <point x="624" y="728" type="line"/>
      <point x="606" y="671"/>
      <point x="545" y="548"/>
      <point x="461" y="443"/>
      <point x="407" y="412" type="qcurve"/>
      <point x="404" y="411"/>
      <point x="398" y="408"/>
      <point x="394" y="408" type="qcurve"/>
      <point x="381" y="408"/>
      <point x="381" y="420" type="qcurve"/>
      <point x="381" y="422"/>
      <point x="383" y="427"/>
      <point x="384" y="429" type="qcurve"/>
      <point x="399" y="459"/>
      <point x="428" y="519"/>
      <point x="438" y="551" type="qcurve"/>
      <point x="455" y="604"/>
      <point x="480" y="711"/>
      <point x="490" y="766" type="qcurve"/>
    </contour>
    <contour>
      <point x="995" y="410" type="qcurve"/>
      <point x="995" y="391"/>
      <point x="968" y="363"/>
      <point x="948" y="363" type="qcurve"/>
      <point x="935" y="363"/>
      <point x="906" y="373"/>
      <point x="895" y="380" type="qcurve"/>
      <point x="837" y="417"/>
      <point x="753" y="533"/>
      <point x="695" y="666"/>
      <point x="674" y="729" type="qcurve"/>
      <point x="812" y="774" type="line"/>
      <point x="820" y="720"/>
      <point x="847" y="599"/>
      <point x="888" y="482"/>
      <point x="914" y="434" type="qcurve"/>
      <point x="920" y="442"/>
      <point x="942" y="451"/>
      <point x="952" y="451" type="qcurve"/>
      <point x="968" y="451"/>
      <point x="995" y="427"/>
    </contour>
  </outline>
</glyph>
<glyph name="u6C9B" format="2">
  <advance width="1000" height="1000"/>
  <unicode hex="6C9B"/>
  <outline>
    <contour>
      <point x="780" y="418" type="line"/>
      <point x="693" y="418" type="line"/>
      <point x="693" y="117" type="line"/>
      <point x="707" y="113"/>
      <point x="738" y="106"/>
      <point x="752" y="106" type="qcurve"/>
      <point x="768" y="106"/>
      <point x="780" y="138"/>
      <point x="780" y="151" type="qcurve"/>
    </contour>
    <contour>
      <point x="276" y="297" type="qcurve"/>
      <point x="276" y="269"/>
      <point x="259" y="188"/>
      <point x="233" y="101"/>
      <point x="204" y="22"/>
      <point x="192" y="-4" type="qcurve"/>
      <point x="187" y="-16"/>
      <point x="169" y="-39"/>
      <point x="154" y="-39" type="qcurve"/>
      <point x="144" y="-39"/>
      <point x="128" y="-28"/>
      <point x="120" y="-22" type="qcurve"/>
      <point x="102" y="-8"/>
      <point x="65" y="23"/>
      <point x="48" y="39" type="qcurve"/>
      <point x="95" y="84"/>
      <point x="179" y="192"/>
      <point x="214" y="247" type="qcurve"/>
      <point x="222" y="261"/>
      <point x="237" y="287"/>
      <point x="244" y="300" type="qcurve"/>
      <point x="247" y="305"/>
      <point x="255" y="316"/>
      <point x="262" y="316" type="qcurve"/>
      <point x="270" y="316"/>
      <point x="276" y="303"/>
    </contour>
    <contour>
      <point x="263" y="398" type="qcurve"/>
      <point x="263" y="378"/>
      <point x="244" y="378" type="qcurve"/>
      <point x="237" y="378"/>
      <point x="234" y="379" type="qcurve"/>
      <point x="187" y="391"/>
      <point x="91" y="418"/>
      <point x="43" y="426" type="qcurve"/>
      <point x="91" y="511" type="line"/>
      <point x="96" y="520"/>
      <point x="113" y="545"/>
      <point x="125" y="545" type="qcurve"/>
      <point x="139" y="545"/>
      <point x="184" y="510"/>
      <point x="231" y="460"/>
      <point x="263" y="412"/>
    </contour>
    <contour>
      <point x="896" y="170" type="line"/>
      <point x="896" y="134"/>
      <point x="884" y="72"/>
      <point x="843" y="35"/>
      <point x="798" y="35" type="qcurve"/>
      <point x="782" y="35"/>
      <point x="742" y="54"/>
      <point x="705" y="81"/>
      <point x="693" y="92" type="qcurve"/>
      <point x="693" y="-82" type="line"/>
      <point x="580" y="-82" type="line"/>
      <point x="580" y="418" type="line"/>
      <point x="507" y="418" type="line"/>
      <point x="507" y="55" type="line"/>
      <point x="392" y="55" type="line"/>
      <point x="392" y="463" type="line"/>
      <point x="580" y="463" type="line"/>
      <point x="580" y="576" type="line"/>
      <point x="693" y="576" type="line"/>
      <point x="693" y="463" type="line"/>
      <point x="896" y="463" type="line"/>
    </contour>
    <contour>
      <point x="318" y="620" type="qcurve"/>
      <point x="318" y="612"/>
      <point x="310" y="600"/>
      <point x="301" y="600" type="qcurve"/>
      <point x="296" y="600"/>
      <point x="244" y="617"/>
      <point x="176" y="639"/>
      <point x="117" y="659"/>
      <point x="104" y="662" type="qcurve"/>
      <point x="116" y="680"/>
      <point x="139" y="717"/>
      <point x="150" y="735" type="qcurve"/>
      <point x="155" y="743"/>
      <point x="166" y="761"/>
      <point x="173" y="768" type="qcurve"/>
      <point x="182" y="777"/>
      <point x="192" y="777" type="qcurve"/>
      <point x="206" y="777"/>
      <point x="248" y="739"/>
      <point x="290" y="684"/>
      <point x="318" y="633"/>
    </contour>
    <contour>
      <point x="988" y="648" type="qcurve"/>
      <point x="988" y="629"/>
      <point x="958" y="596"/>
      <point x="938" y="596" type="qcurve"/>
      <point x="345" y="596" type="line"/>
      <point x="345" y="645" type="line"/>
      <point x="586" y="645" type="line"/>
      <point x="579" y="691"/>
      <point x="565" y="782"/>
      <point x="557" y="828" type="qcurve"/>
      <point x="577" y="828"/>
      <point x="616" y="825"/>
      <point x="635" y="824" type="qcurve"/>
      <point x="655" y="823"/>
      <point x="693" y="820"/>
      <point x="712" y="818" type="qcurve"/>
      <point x="714" y="818"/>
      <point x="718" y="817"/>
      <point x="720" y="817" type="qcurve"/>
      <point x="722" y="815"/>
      <point x="726" y="815" type="qcurve"/>
      <point x="734" y="810"/>
      <point x="734" y="797" type="qcurve"/>
      <point x="734" y="791"/>
      <point x="719" y="749"/>
      <point x="697" y="697"/>
      <point x="678" y="653"/>
      <point x="675" y="645" type="qcurve"/>
      <point x="863" y="645" type="line"/>
      <point x="865" y="669"/>
      <point x="901" y="705"/>
      <point x="926" y="705" type="qcurve"/>
      <point x="949" y="705"/>
      <point x="988" y="671"/>
    </contour>
  </outline>
</glyph>
<glyph name="u7199" format="2">
  <advance width="1000" height="1000"/>
  <unicode hex="7199"/>
  <outline>
    <contour>
      <point x="300" y="238" type="line"/>
      <point x="300" y="374" type="line"/>
      <point x="220" y="374" type="line"/>
      <point x="220" y="609" type="line"/>
      <point x="300" y="609" type="line"/>
      <point x="300" y="736" type="line"/>
      <point x="198" y="736" type="line"/>
      <point x="198" y="238" type="line"/>
    </contour>
    <contour>
      <point x="418" y="447" type="qcurve"/>
      <point x="418" y="478"/>
      <point x="417" y="539"/>
      <point x="417" y="570" type="qcurve"/>
      <point x="298" y="570" type="line"/>
      <point x="298" y="413" type="line"/>
      <point x="392" y="413" type="line"/>
      <point x="406" y="413"/>
      <point x="418" y="435"/>
    </contour>
    <contour>
      <point x="790" y="728" type="line"/>
      <point x="667" y="728" type="line"/>
      <point x="666" y="708"/>
      <point x="666" y="667"/>
      <point x="666" y="647" type="qcurve"/>
      <point x="666" y="510" type="line"/>
      <point x="753" y="510" type="line"/>
      <point x="779" y="510"/>
      <point x="790" y="552"/>
      <point x="790" y="572" type="qcurve"/>
    </contour>
    <contour>
      <point x="309" y="99" type="qcurve"/>
      <point x="309" y="96"/>
      <point x="305" y="87"/>
      <point x="303" y="84" type="qcurve"/>
      <point x="288" y="60"/>
      <point x="239" y="4"/>
      <point x="179" y="-49"/>
      <point x="117" y="-89"/>
      <point x="90" y="-98" type="qcurve"/>
      <point x="87" y="-99"/>
      <point x="81" y="-100"/>
      <point x="78" y="-100" type="qcurve"/>
      <point x="65" y="-100"/>
      <point x="65" y="-89" type="qcurve"/>
      <point x="65" y="-84"/>
      <point x="79" y="-61"/>
      <point x="94" y="-38"/>
      <point x="97" y="-33" type="qcurve"/>
      <point x="122" y="10"/>
      <point x="163" y="100"/>
      <point x="175" y="148" type="qcurve"/>
      <point x="262" y="123" type="line"/>
      <point x="271" y="121"/>
      <point x="289" y="116"/>
      <point x="298" y="112" type="qcurve"/>
      <point x="303" y="110"/>
      <point x="309" y="106"/>
    </contour>
    <contour>
      <point x="466" y="-32" type="qcurve"/>
      <point x="466" y="-43"/>
      <point x="463" y="-70"/>
      <point x="449" y="-90"/>
      <point x="434" y="-90" type="qcurve"/>
      <point x="416" y="-90"/>
      <point x="407" y="-72" type="qcurve"/>
      <point x="400" y="-58"/>
      <point x="389" y="-25"/>
      <point x="383" y="-10" type="qcurve"/>
      <point x="371" y="22"/>
      <point x="347" y="84"/>
      <point x="334" y="115" type="qcurve"/>
      <point x="361" y="119"/>
      <point x="414" y="131"/>
      <point x="442" y="131" type="qcurve"/>
      <point x="451" y="131"/>
      <point x="461" y="126"/>
      <point x="464" y="117" type="qcurve"/>
      <point x="465" y="115"/>
      <point x="466" y="75"/>
      <point x="466" y="21"/>
      <point x="466" y="-24"/>
    </contour>
    <contour>
      <point x="657" y="-46" type="qcurve"/>
      <point x="657" y="-59"/>
      <point x="644" y="-82"/>
      <point x="628" y="-82" type="qcurve"/>
      <point x="618" y="-82"/>
      <point x="603" y="-67"/>
      <point x="598" y="-60" type="qcurve"/>
      <point x="588" y="-46"/>
      <point x="575" y="-13"/>
      <point x="567" y="3" type="qcurve"/>
      <point x="553" y="33"/>
      <point x="524" y="93"/>
      <point x="510" y="124" type="qcurve"/>
      <point x="539" y="130"/>
      <point x="597" y="144"/>
      <point x="626" y="144" type="qcurve"/>
      <point x="634" y="144"/>
      <point x="640" y="137"/>
      <point x="642" y="131" type="qcurve"/>
      <point x="644" y="127"/>
      <point x="649" y="78"/>
      <point x="654" y="15"/>
      <point x="657" y="-38"/>
    </contour>
    <contour>
      <point x="547" y="237" type="qcurve"/>
      <point x="547" y="218"/>
      <point x="522" y="193"/>
      <point x="503" y="193" type="qcurve"/>
      <point x="92" y="193" type="line"/>
      <point x="92" y="782" type="line"/>
      <point x="179" y="782"/>
      <point x="352" y="781"/>
      <point x="439" y="781" type="qcurve"/>
      <point x="441" y="800"/>
      <point x="470" y="828"/>
      <point x="489" y="828" type="qcurve"/>
      <point x="505" y="828"/>
      <point x="536" y="801"/>
      <point x="536" y="784" type="qcurve"/>
      <point x="536" y="736"/>
      <point x="489" y="736" type="qcurve"/>
      <point x="401" y="736" type="line"/>
      <point x="401" y="610" type="line"/>
      <point x="515" y="610" type="line"/>
      <point x="515" y="466" type="line"/>
      <point x="515" y="425"/>
      <point x="488" y="386"/>
      <point x="437" y="376"/>
      <point x="401" y="376" type="qcurve"/>
      <point x="401" y="238" type="line"/>
      <point x="449" y="238" type="line"/>
      <point x="452" y="257"/>
      <point x="481" y="284"/>
      <point x="500" y="284" type="qcurve"/>
      <point x="518" y="284"/>
      <point x="547" y="255"/>
    </contour>
    <contour>
      <point x="929" y="-72" type="qcurve"/>
      <point x="929" y="-79"/>
      <point x="912" y="-90"/>
      <point x="906" y="-90" type="qcurve"/>
      <point x="890" y="-90"/>
      <point x="842" y="-58"/>
      <point x="788" y="-7"/>
      <point x="737" y="49"/>
      <point x="697" y="98"/>
      <point x="687" y="112" type="qcurve"/>
      <point x="693" y="115"/>
      <point x="728" y="129"/>
      <point x="769" y="146"/>
      <point x="802" y="158"/>
      <point x="805" y="158" type="qcurve"/>
      <point x="820" y="158"/>
      <point x="827" y="147" type="qcurve"/>
      <point x="831" y="142"/>
      <point x="847" y="105"/>
      <point x="863" y="66"/>
      <point x="867" y="57" type="qcurve"/>
      <point x="881" y="29"/>
      <point x="910" y="-26"/>
      <point x="923" y="-55" type="qcurve"/>
      <point x="925" y="-59"/>
      <point x="929" y="-67"/>
    </contour>
    <contour>
      <point x="980" y="283" type="qcurve"/>
      <point x="980" y="261"/>
      <point x="959" y="234"/>
      <point x="940" y="224" type="qcurve"/>
      <point x="915" y="211"/>
      <point x="839" y="194"/>
      <point x="762" y="187"/>
      <point x="733" y="187" type="qcurve"/>
      <point x="683" y="187"/>
      <point x="601" y="212"/>
      <point x="553" y="275"/>
      <point x="553" y="332" type="qcurve"/>
      <point x="553" y="774" type="line"/>
      <point x="901" y="774" type="line"/>
      <point x="901" y="574" type="line"/>
      <point x="901" y="531"/>
      <point x="862" y="485"/>
      <point x="799" y="468"/>
      <point x="762" y="468" type="qcurve"/>
      <point x="666" y="468" type="line"/>
      <point x="666" y="318" type="line"/>
      <point x="666" y="278"/>
      <point x="724" y="239"/>
      <point x="760" y="239" type="qcurve"/>
      <point x="794" y="239"/>
      <point x="862" y="245"/>
      <point x="894" y="255" type="qcurve"/>
      <point x="888" y="260"/>
      <point x="879" y="278"/>
      <point x="879" y="285" type="qcurve"/>
      <point x="879" y="306"/>
      <point x="913" y="331"/>
      <point x="932" y="331" type="qcurve"/>
      <point x="952" y="331"/>
      <point x="980" y="303"/>
    </contour>
  </outline>
</glyph>
<glyph name="u73E5" format="2">
  <advance width="1000" height="1000"/>
  <unicode hex="73E5"/>
  <outline>
    <contour>
      <point x="732" y="690" type="line"/>
      <point x="580" y="690" type="line"/>
      <point x="580" y="557" type="line"/>
      <point x="640" y="557" type="line"/>
      <point x="643" y="569"/>
      <point x="664" y="585"/>
      <point x="677" y="585" type="qcurve"/>
      <point x="694" y="585"/>
      <point x="715" y="566"/>
      <point x="715" y="549" type="qcurve"/>
      <point x="715" y="530"/>
      <point x="692" y="510"/>
      <point x="674" y="510" type="qcurve"/>
      <point x="580" y="510" type="line"/>
      <point x="580" y="392" type="line"/>
      <point x="638" y="392" type="line"/>
      <point x="641" y="403"/>
      <point x="664" y="418"/>
      <point x="675" y="418" type="qcurve"/>
      <point x="690" y="418"/>
      <point x="714" y="399"/>
      <point x="714" y="383" type="qcurve"/>
      <point x="714" y="364"/>
      <point x="690" y="344"/>
      <point x="671" y="344" type="qcurve"/>
      <point x="580" y="344" type="line"/>
      <point x="580" y="185" type="line"/>
      <point x="618" y="191"/>
      <point x="694" y="203"/>
      <point x="732" y="209" type="qcurve"/>
    </contour>
    <contour>
      <point x="410" y="263" type="qcurve"/>
      <point x="410" y="257"/>
      <point x="404" y="249" type="qcurve"/>
      <point x="399" y="242"/>
      <point x="364" y="213"/>
      <point x="328" y="185"/>
      <point x="320" y="179" type="qcurve"/>
      <point x="262" y="140"/>
      <point x="133" y="79"/>
      <point x="66" y="59" type="qcurve"/>
      <point x="9" y="158" type="line"/>
      <point x="45" y="167"/>
      <point x="119" y="183"/>
      <point x="155" y="192" type="qcurve"/>
      <point x="155" y="418" type="line"/>
      <point x="50" y="418" type="line"/>
      <point x="50" y="461" type="line"/>
      <point x="155" y="461" type="line"/>
      <point x="155" y="652" type="line"/>
      <point x="35" y="652" type="line"/>
      <point x="35" y="695" type="line"/>
      <point x="287" y="695" type="line"/>
      <point x="288" y="716"/>
      <point x="315" y="748"/>
      <point x="337" y="748" type="qcurve"/>
      <point x="357" y="748"/>
      <point x="393" y="726"/>
      <point x="393" y="703" type="qcurve"/>
      <point x="393" y="675"/>
      <point x="360" y="652"/>
      <point x="334" y="652" type="qcurve"/>
      <point x="270" y="652" type="line"/>
      <point x="270" y="462" type="line"/>
      <point x="297" y="462" type="line"/>
      <point x="300" y="476"/>
      <point x="322" y="498"/>
      <point x="337" y="498" type="qcurve"/>
      <point x="354" y="498"/>
      <point x="381" y="478"/>
      <point x="381" y="459" type="qcurve"/>
      <point x="381" y="438"/>
      <point x="359" y="421"/>
      <point x="326" y="418"/>
      <point x="311" y="418" type="qcurve"/>
      <point x="270" y="418" type="line"/>
      <point x="270" y="223" type="line"/>
      <point x="276" y="225"/>
      <point x="318" y="239"/>
      <point x="368" y="256"/>
      <point x="404" y="268"/>
      <point x="404" y="268" type="qcurve"/>
      <point x="410" y="268"/>
    </contour>
    <contour>
      <point x="970" y="236" type="qcurve"/>
      <point x="970" y="228"/>
      <point x="939" y="207"/>
      <point x="896" y="186"/>
      <point x="857" y="171"/>
      <point x="849" y="168" type="qcurve"/>
      <point x="849" y="-89" type="line"/>
      <point x="732" y="-89" type="line"/>
      <point x="732" y="139" type="line"/>
      <point x="645" y="114"/>
      <point x="469" y="70"/>
      <point x="380" y="55" type="qcurve"/>
      <point x="334" y="156" type="line"/>
      <point x="367" y="159"/>
      <point x="432" y="167"/>
      <point x="465" y="171" type="qcurve"/>
      <point x="465" y="690" type="line"/>
      <point x="404" y="690" type="line"/>
      <point x="404" y="739" type="line"/>
      <point x="848" y="739" type="line"/>
      <point x="851" y="760"/>
      <point x="884" y="794"/>
      <point x="906" y="794" type="qcurve"/>
      <point x="928" y="794"/>
      <point x="967" y="766"/>
      <point x="967" y="742" type="qcurve"/>
      <point x="967" y="718"/>
      <point x="943" y="695"/>
      <point x="905" y="688"/>
      <point x="865" y="689"/>
      <point x="849" y="689" type="qcurve"/>
      <point x="849" y="225" type="line"/>
      <point x="867" y="228"/>
      <point x="902" y="234"/>
      <point x="920" y="237" type="qcurve"/>
      <point x="930" y="239"/>
      <point x="950" y="243"/>
      <point x="960" y="243" type="qcurve"/>
      <point x="970" y="243"/>
    </contour>
  </outline>
</glyph>
<glyph name="u7FC1" format="2">
  <advance width="1000" height="1000"/>
  <unicode hex="7FC1"/>
  <outline>
    <contour>
      <point x="765" y="144" type="line"/>
      <point x="710" y="105"/>
      <point x="656" y="80" type="qcurve"/>
      <point x="600" y="55"/>
      <point x="533" y="43" type="qcurve"/>
      <point x="521" y="41"/>
      <point x="496" y="37"/>
      <point x="484" y="37" type="qcurve"/>
      <point x="473" y="37"/>
      <point x="473" y="47" type="qcurve"/>
      <point x="473" y="49"/>
      <point x="485" y="54"/>
      <point x="486" y="55" type="qcurve"/>
      <point x="533" y="76"/>
      <point x="629" y="142"/>
      <point x="713" y="224"/>
      <point x="740" y="267" type="qcurve"/>
      <point x="747" y="264"/>
      <point x="753" y="261" type="qcurve"/>
      <point x="758" y="258"/>
      <point x="764" y="256" type="qcurve"/>
      <point x="764" y="376" type="line"/>
      <point x="685" y="376" type="line"/>
      <point x="702" y="366"/>
      <point x="736" y="345"/>
      <point x="752" y="335" type="qcurve"/>
      <point x="723" y="300"/>
      <point x="647" y="247"/>
      <point x="605" y="229" type="qcurve"/>
      <point x="581" y="219"/>
      <point x="517" y="198"/>
      <point x="489" y="198" type="qcurve"/>
      <point x="482" y="198"/>
      <point x="482" y="203" type="qcurve"/>
      <point x="482" y="209"/>
      <point x="488" y="213" type="qcurve"/>
      <point x="498" y="221"/>
      <point x="519" y="235"/>
      <point x="529" y="242" type="qcurve"/>
      <point x="598" y="297"/>
      <point x="647" y="376" type="qcurve"/>
      <point x="520" y="376" type="line"/>
      <point x="520" y="420" type="line"/>
      <point x="886" y="420" type="line"/>
      <point x="886" y="90" type="line"/>
      <point x="886" y="52"/>
      <point x="869" y="-26"/>
      <point x="821" y="-78"/>
      <point x="773" y="-78" type="qcurve"/>
      <point x="747" y="-78"/>
      <point x="682" y="-52"/>
      <point x="622" y="-14"/>
      <point x="603" y="3" type="qcurve"/>
      <point x="600" y="6"/>
      <point x="600" y="9" type="qcurve"/>
      <point x="600" y="13"/>
      <point x="606" y="13" type="qcurve"/>
      <point x="609" y="13"/>
      <point x="615" y="11" type="qcurve"/>
      <point x="640" y="4"/>
      <point x="689" y="-3"/>
      <point x="714" y="-3" type="qcurve"/>
      <point x="738" y="-3"/>
      <point x="759" y="21"/>
      <point x="765" y="58"/>
      <point x="765" y="76" type="qcurve"/>
    </contour>
    <contour>
      <point x="447" y="814" type="line"/>
      <point x="425" y="775"/>
      <point x="353" y="697"/>
      <point x="266" y="628"/>
      <point x="173" y="575"/>
      <point x="131" y="561" type="qcurve"/>
      <point x="122" y="558"/>
      <point x="93" y="550"/>
      <point x="84" y="550" type="qcurve"/>
      <point x="81" y="550"/>
      <point x="67" y="553"/>
      <point x="67" y="558" type="qcurve"/>
      <point x="67" y="564"/>
      <point x="75" y="570"/>
      <point x="79" y="573" type="qcurve"/>
      <point x="154" y="624"/>
      <point x="278" y="765"/>
      <point x="318" y="847" type="qcurve"/>
    </contour>
    <contour>
      <point x="732" y="486" type="qcurve"/>
      <point x="732" y="481"/>
      <point x="723" y="474"/>
      <point x="718" y="474" type="qcurve"/>
      <point x="709" y="474"/>
      <point x="672" y="492"/>
      <point x="636" y="514"/>
      <point x="627" y="520" type="qcurve"/>
      <point x="580" y="501"/>
      <point x="461" y="482"/>
      <point x="340" y="475"/>
      <point x="288" y="472" type="qcurve"/>
      <point x="270" y="534" type="line"/>
      <point x="289" y="539"/>
      <point x="312" y="552"/>
      <point x="325" y="565" type="qcurve"/>
      <point x="359" y="598"/>
      <point x="413" y="676"/>
      <point x="438" y="716" type="qcurve"/>
      <point x="458" y="712"/>
      <point x="499" y="701"/>
      <point x="518" y="696" type="qcurve"/>
      <point x="526" y="694"/>
      <point x="545" y="690"/>
      <point x="552" y="687" type="qcurve"/>
      <point x="558" y="686"/>
      <point x="558" y="679" type="qcurve"/>
      <point x="558" y="674"/>
      <point x="552" y="667"/>
      <point x="549" y="664" type="qcurve"/>
      <point x="538" y="654"/>
      <point x="513" y="635"/>
      <point x="502" y="626" type="qcurve"/>
      <point x="474" y="604"/>
      <point x="418" y="561"/>
      <point x="389" y="541" type="qcurve"/>
      <point x="439" y="541"/>
      <point x="539" y="544"/>
      <point x="588" y="552" type="qcurve"/>
      <point x="572" y="564"/>
      <point x="541" y="587"/>
      <point x="524" y="597" type="qcurve"/>
      <point x="611" y="645" type="line"/>
      <point x="621" y="635"/>
      <point x="661" y="593"/>
      <point x="703" y="544"/>
      <point x="732" y="499"/>
    </contour>
    <contour>
      <point x="965" y="595" type="qcurve"/>
      <point x="965" y="573"/>
      <point x="931" y="553"/>
      <point x="911" y="553" type="qcurve"/>
      <point x="879" y="553"/>
      <point x="796" y="589"/>
      <point x="709" y="647"/>
      <point x="630" y="716"/>
      <point x="569" y="785"/>
      <point x="554" y="813" type="qcurve"/>
      <point x="681" y="847" type="line"/>
      <point x="712" y="783"/>
      <point x="817" y="656"/>
      <point x="870" y="609" type="qcurve"/>
      <point x="876" y="623"/>
      <point x="903" y="641"/>
      <point x="918" y="641" type="qcurve"/>
      <point x="936" y="641"/>
      <point x="965" y="614"/>
    </contour>
    <contour>
      <point x="347" y="146" type="line"/>
      <point x="292" y="104"/>
      <point x="233" y="79" type="qcurve"/>
      <point x="174" y="54"/>
      <point x="105" y="42" type="qcurve"/>
      <point x="93" y="40"/>
      <point x="67" y="37"/>
      <point x="55" y="37" type="qcurve"/>
      <point x="51" y="37"/>
      <point x="44" y="41"/>
      <point x="44" y="45" type="qcurve"/>
      <point x="44" y="47"/>
      <point x="56" y="53"/>
      <point x="57" y="54" type="qcurve"/>
      <point x="106" y="77"/>
      <point x="205" y="139"/>
      <point x="292" y="220"/>
      <point x="320" y="266" type="qcurve"/>
      <point x="328" y="263"/>
      <point x="334" y="260" type="qcurve"/>
      <point x="346" y="254" type="line"/>
      <point x="346" y="376" type="line"/>
      <point x="262" y="376" type="line"/>
      <point x="278" y="366"/>
      <point x="294" y="357" type="qcurve"/>
      <point x="311" y="347"/>
      <point x="327" y="336" type="qcurve"/>
      <point x="307" y="313"/>
      <point x="243" y="266"/>
      <point x="170" y="227"/>
      <point x="95" y="203"/>
      <point x="65" y="203" type="qcurve"/>
      <point x="63" y="203"/>
      <point x="57" y="204"/>
      <point x="57" y="208" type="qcurve"/>
      <point x="57" y="210"/>
      <point x="64" y="216"/>
      <point x="65" y="217" type="qcurve"/>
      <point x="74" y="223"/>
      <point x="92" y="234"/>
      <point x="101" y="241" type="qcurve"/>
      <point x="134" y="265"/>
      <point x="170" y="304" type="qcurve"/>
      <point x="205" y="342"/>
      <point x="226" y="376" type="qcurve"/>
      <point x="101" y="376" type="line"/>
      <point x="101" y="420" type="line"/>
      <point x="467" y="420" type="line"/>
      <point x="467" y="90" type="line"/>
      <point x="467" y="50"/>
      <point x="450" y="-26"/>
      <point x="401" y="-75"/>
      <point x="352" y="-75" type="qcurve"/>
      <point x="326" y="-75"/>
      <point x="266" y="-52"/>
      <point x="212" y="-17"/>
      <point x="193" y="1" type="qcurve"/>
      <point x="190" y="4"/>
      <point x="190" y="7" type="qcurve"/>
      <point x="190" y="12"/>
      <point x="196" y="12" type="qcurve"/>
      <point x="198" y="12"/>
      <point x="204" y="10" type="qcurve"/>
      <point x="249" y="-3"/>
      <point x="295" y="-3" type="qcurve"/>
      <point x="320" y="-3"/>
      <point x="341" y="23"/>
      <point x="347" y="61"/>
      <point x="347" y="80" type="qcurve"/>
    </contour>
  </outline>
</glyph>
<glyph name="u8ACF" format="2">
  <advance width="1000" height="1000"/>
  <unicode hex="8ACF"/>
  <outline>
    <contour>
      <point x="219" y="224" type="line"/>
      <point x="160" y="224" type="line"/>
      <point x="160" y="-2" type="line"/>
      <point x="195" y="-2"/>
      <point x="219" y="39"/>
      <point x="219" y="70" type="qcurve"/>
    </contour>
    <contour>
      <point x="562" y="682" type="line"/>
      <point x="498" y="682" type="line"/>
      <point x="498" y="535" type="line"/>
      <point x="501" y="535" type="line"/>
      <point x="503" y="545"/>
      <point x="519" y="555"/>
      <point x="528" y="555" type="qcurve"/>
      <point x="542" y="555"/>
      <point x="559" y="538"/>
      <point x="559" y="524" type="qcurve"/>
      <point x="559" y="507"/>
      <point x="539" y="494"/>
      <point x="510" y="493"/>
      <point x="498" y="493" type="qcurve"/>
      <point x="498" y="382" type="line"/>
      <point x="500" y="382" type="line"/>
      <point x="502" y="392"/>
      <point x="516" y="402"/>
      <point x="526" y="402" type="qcurve"/>
      <point x="540" y="402"/>
      <point x="557" y="385"/>
      <point x="557" y="371" type="qcurve"/>
      <point x="557" y="354"/>
      <point x="538" y="341"/>
      <point x="511" y="340"/>
      <point x="498" y="340" type="qcurve"/>
      <point x="498" y="201" type="line"/>
      <point x="514" y="204"/>
      <point x="546" y="212"/>
      <point x="562" y="216" type="qcurve"/>
    </contour>
    <contour>
      <point x="331" y="265" type="line"/>
      <point x="331" y="223"/>
      <point x="330" y="139"/>
      <point x="330" y="97" type="qcurve"/>
      <point x="330" y="41"/>
      <point x="301" y="-20"/>
      <point x="235" y="-44"/>
      <point x="181" y="-44" type="qcurve"/>
      <point x="51" y="-44" type="line"/>
      <point x="51" y="265" type="line"/>
    </contour>
    <contour>
      <point x="333" y="386" type="qcurve"/>
      <point x="333" y="364"/>
      <point x="303" y="339"/>
      <point x="282" y="339" type="qcurve"/>
      <point x="74" y="339" type="line"/>
      <point x="74" y="386" type="line"/>
      <point x="230" y="386" type="line"/>
      <point x="232" y="403"/>
      <point x="264" y="428"/>
      <point x="280" y="428" type="qcurve"/>
      <point x="297" y="428"/>
      <point x="333" y="405"/>
    </contour>
    <contour>
      <point x="331" y="512" type="qcurve"/>
      <point x="331" y="492"/>
      <point x="298" y="470"/>
      <point x="280" y="470" type="qcurve"/>
      <point x="72" y="470" type="line"/>
      <point x="72" y="514" type="line"/>
      <point x="230" y="514" type="line"/>
      <point x="232" y="531"/>
      <point x="264" y="557"/>
      <point x="281" y="557" type="qcurve"/>
      <point x="298" y="557"/>
      <point x="331" y="530"/>
    </contour>
    <contour>
      <point x="364" y="640" type="qcurve"/>
      <point x="364" y="624"/>
      <point x="338" y="600"/>
      <point x="322" y="600" type="qcurve"/>
      <point x="20" y="600" type="line"/>
      <point x="20" y="648" type="line"/>
      <point x="159" y="648" type="line"/>
      <point x="150" y="688"/>
      <point x="132" y="767"/>
      <point x="124" y="807" type="qcurve"/>
      <point x="135" y="807"/>
      <point x="179" y="806"/>
      <point x="229" y="803"/>
      <point x="271" y="799"/>
      <point x="278" y="794" type="qcurve"/>
      <point x="283" y="791"/>
      <point x="283" y="783" type="qcurve"/>
      <point x="283" y="776"/>
      <point x="271" y="739"/>
      <point x="253" y="695"/>
      <point x="237" y="657"/>
      <point x="233" y="648" type="qcurve"/>
      <point x="269" y="648" type="line"/>
      <point x="274" y="665"/>
      <point x="300" y="684"/>
      <point x="317" y="684" type="qcurve"/>
      <point x="334" y="684"/>
      <point x="364" y="658"/>
    </contour>
    <contour>
      <point x="995" y="22" type="qcurve"/>
      <point x="995" y="0"/>
      <point x="964" y="-22"/>
      <point x="944" y="-22" type="qcurve"/>
      <point x="916" y="-22"/>
      <point x="892" y="-3" type="qcurve"/>
      <point x="867" y="18"/>
      <point x="816" y="86"/>
      <point x="799" y="115" type="qcurve"/>
      <point x="786" y="99"/>
      <point x="743" y="59"/>
      <point x="696" y="27"/>
      <point x="675" y="22" type="qcurve"/>
      <point x="675" y="-82" type="line"/>
      <point x="562" y="-82" type="line"/>
      <point x="562" y="146" type="line"/>
      <point x="518" y="124"/>
      <point x="424" y="84"/>
      <point x="376" y="70" type="qcurve"/>
      <point x="335" y="176" type="line"/>
      <point x="390" y="185" type="line"/>
      <point x="390" y="683" type="line"/>
      <point x="346" y="683" type="line"/>
      <point x="346" y="731" type="line"/>
      <point x="747" y="731" type="line"/>
      <point x="748" y="756"/>
      <point x="782" y="797"/>
      <point x="808" y="797" type="qcurve"/>
      <point x="831" y="797"/>
      <point x="872" y="766"/>
      <point x="872" y="741" type="qcurve"/>
      <point x="872" y="709"/>
      <point x="828" y="683"/>
      <point x="800" y="683" type="qcurve"/>
      <point x="675" y="683" type="line"/>
      <point x="675" y="239" type="line"/>
      <point x="682" y="241"/>
      <point x="712" y="252"/>
      <point x="718" y="252" type="qcurve"/>
      <point x="721" y="252"/>
      <point x="728" y="247"/>
      <point x="728" y="243" type="qcurve"/>
      <point x="728" y="238"/>
      <point x="705" y="216"/>
      <point x="680" y="196"/>
      <point x="675" y="192" type="qcurve"/>
      <point x="675" y="51" type="line"/>
      <point x="699" y="84"/>
      <point x="738" y="156"/>
      <point x="755" y="193" type="qcurve"/>
      <point x="730" y="264"/>
      <point x="701" y="416"/>
      <point x="691" y="490" type="qcurve"/>
      <point x="789" y="536" type="line"/>
      <point x="793" y="485"/>
      <point x="800" y="382"/>
      <point x="809" y="332" type="qcurve"/>
      <point x="820" y="388"/>
      <point x="829" y="503"/>
      <point x="831" y="560" type="qcurve"/>
      <point x="701" y="560" type="line"/>
      <point x="701" y="603" type="line"/>
      <point x="946" y="603" type="line"/>
      <point x="960" y="603"/>
      <point x="960" y="592" type="qcurve"/>
      <point x="960" y="544"/>
      <point x="942" y="436"/>
      <point x="931" y="389" type="qcurve"/>
      <point x="918" y="338"/>
      <point x="881" y="238"/>
      <point x="856" y="192" type="qcurve"/>
      <point x="867" y="157"/>
      <point x="895" y="86"/>
      <point x="913" y="53" type="qcurve"/>
      <point x="918" y="59"/>
      <point x="939" y="67"/>
      <point x="947" y="67" type="qcurve"/>
      <point x="966" y="67"/>
      <point x="995" y="42"/>
    </contour>
  </outline>
</glyph>
<glyph name="u9EBB" format="2">
  <advance width="1000" height="1000"/>
  <unicode hex="9EBB"/>
  <outline>
    <contour>
      <point x="925" y="703" type="qcurve"/>
      <point x="925" y="680"/>
      <point x="893" y="648"/>
      <point x="870" y="648" type="qcurve"/>
      <point x="222" y="648" type="line"/>
      <point x="222" y="574"/>
      <point x="222" y="407"/>
      <point x="207" y="243"/>
      <point x="185" y="173" type="qcurve"/>
      <point x="165" y="107"/>
      <point x="96" y="-14"/>
      <point x="43" y="-58" type="qcurve"/>
      <point x="38" y="-62"/>
      <point x="26" y="-70"/>
      <point x="18" y="-70" type="qcurve"/>
      <point x="6" y="-70"/>
      <point x="6" y="-59" type="qcurve"/>
      <point x="6" y="-54"/>
      <point x="11" y="-45"/>
      <point x="13" y="-41" type="qcurve"/>
      <point x="45" y="20"/>
      <point x="73" y="127"/>
      <point x="84" y="190" type="qcurve"/>
      <point x="93" y="239"/>
      <point x="98" y="339"/>
      <point x="98" y="388" type="qcurve"/>
      <point x="98" y="465"/>
      <point x="96" y="617"/>
      <point x="95" y="693" type="qcurve"/>
      <point x="443" y="694" type="line"/>
      <point x="418" y="833" type="line"/>
      <point x="557" y="828" type="line"/>
      <point x="565" y="828"/>
      <point x="586" y="819"/>
      <point x="586" y="808" type="qcurve"/>
      <point x="586" y="802"/>
      <point x="573" y="771"/>
      <point x="554" y="733"/>
      <point x="537" y="701"/>
      <point x="533" y="694" type="qcurve"/>
      <point x="790" y="694" type="line"/>
      <point x="790" y="724"/>
      <point x="824" y="766"/>
      <point x="855" y="766" type="qcurve"/>
      <point x="881" y="766"/>
      <point x="925" y="731"/>
    </contour>
    <contour>
      <point x="446" y="-70" type="line"/>
      <point x="337" y="-70" type="line"/>
      <point x="337" y="428" type="line"/>
      <point x="241" y="428" type="line"/>
      <point x="241" y="473" type="line"/>
      <point x="337" y="473" type="line"/>
      <point x="337" y="600" type="line"/>
      <point x="446" y="600" type="line"/>
      <point x="446" y="473" type="line"/>
      <point x="470" y="473" type="line"/>
      <point x="472" y="486"/>
      <point x="494" y="506"/>
      <point x="507" y="506" type="qcurve"/>
      <point x="521" y="506"/>
      <point x="544" y="483"/>
      <point x="544" y="469" type="qcurve"/>
      <point x="544" y="444"/>
      <point x="514" y="428"/>
      <point x="473" y="428"/>
      <point x="446" y="428" type="qcurve"/>
    </contour>
    <contour>
      <point x="766" y="-69" type="line"/>
      <point x="651" y="-69" type="line"/>
      <point x="651" y="428" type="line"/>
      <point x="560" y="428" type="line"/>
      <point x="560" y="473" type="line"/>
      <point x="651" y="473" type="line"/>
      <point x="651" y="600" type="line"/>
      <point x="766" y="600" type="line"/>
      <point x="766" y="473" type="line"/>
      <point x="825" y="473" type="line"/>
      <point x="827" y="494"/>
      <point x="857" y="529"/>
      <point x="879" y="529" type="qcurve"/>
      <point x="899" y="529"/>
      <point x="937" y="502"/>
      <point x="937" y="480" type="qcurve"/>
      <point x="937" y="458"/>
      <point x="909" y="428"/>
      <point x="887" y="428" type="qcurve"/>
      <point x="766" y="428" type="line"/>
    </contour>
    <contour>
      <point x="525" y="145" type="line"/>
      <point x="461" y="145" type="line"/>
      <point x="461" y="377" type="line"/>
      <point x="525" y="377" type="line"/>
    </contour>
    <contour>
      <point x="644" y="361" type="line"/>
      <point x="639" y="281"/>
      <point x="613" y="163"/>
      <point x="572" y="104" type="qcurve"/>
      <point x="565" y="94"/>
      <point x="537" y="67"/>
      <point x="529" y="60" type="qcurve"/>
      <point x="518" y="52"/>
      <point x="503" y="45"/>
      <point x="498" y="45" type="qcurve"/>
      <point x="490" y="45"/>
      <point x="490" y="52" type="qcurve"/>
      <point x="490" y="58"/>
      <point x="499" y="75"/>
      <point x="517" y="116"/>
      <point x="525" y="144" type="qcurve"/>
      <point x="541" y="199"/>
      <point x="549" y="324"/>
      <point x="550" y="381" type="qcurve"/>
    </contour>
    <contour>
      <point x="994" y="148" type="qcurve"/>
      <point x="994" y="117"/>
      <point x="949" y="84"/>
      <point x="889" y="73"/>
      <point x="865" y="73" type="qcurve"/>
      <point x="829" y="73"/>
      <point x="794" y="98"/>
      <point x="783" y="145"/>
      <point x="783" y="176" type="qcurve"/>
      <point x="783" y="199"/>
      <point x="784" y="243"/>
      <point x="784" y="375" type="qcurve"/>
      <point x="885" y="375" type="line"/>
      <point x="885" y="143" type="line"/>
      <point x="885" y="135"/>
      <point x="888" y="120"/>
      <point x="896" y="112"/>
      <point x="900" y="112" type="qcurve"/>
      <point x="905" y="112"/>
      <point x="913" y="113"/>
      <point x="917" y="117" type="qcurve"/>
      <point x="911" y="121"/>
      <point x="901" y="140"/>
      <point x="901" y="147" type="qcurve"/>
      <point x="901" y="167"/>
      <point x="929" y="191"/>
      <point x="948" y="191" type="qcurve"/>
      <point x="967" y="191"/>
      <point x="994" y="168"/>
    </contour>
    <contour>
      <point x="331" y="361" type="line"/>
      <point x="326" y="281"/>
      <point x="300" y="163"/>
      <point x="259" y="104" type="qcurve"/>
      <point x="252" y="94"/>
      <point x="224" y="67"/>
      <point x="216" y="60" type="qcurve"/>
      <point x="205" y="52"/>
      <point x="190" y="45"/>
      <point x="185" y="45" type="qcurve"/>
      <point x="177" y="45"/>
      <point x="177" y="52" type="qcurve"/>
      <point x="177" y="58"/>
      <point x="186" y="75"/>
      <point x="204" y="116"/>
      <point x="212" y="144" type="qcurve"/>
      <point x="228" y="199"/>
      <point x="236" y="324"/>
      <point x="237" y="381" type="qcurve"/>
    </contour>
  </outline>
</glyph>
<glyph name="u6717.trad" format="2">
  <advance width="1000" height="1000"/>
  <outline>
    <contour>
      <point x="362" y="441" type="qcurve"/>
      <point x="362" y="491"/>
      <point x="361" y="589"/>
      <point x="361" y="638" type="qcurve"/>
      <point x="215" y="638" type="line"/>
      <point x="215" y="521" type="line"/>
      <point x="264" y="521" type="line"/>
      <point x="265" y="537"/>
      <point x="291" y="554"/>
      <point x="305" y="554" type="qcurve"/>
      <point x="321" y="554"/>
      <point x="347" y="532"/>
      <point x="347" y="515" type="qcurve"/>
      <point x="347" y="501"/>
      <point x="323" y="478"/>
      <point x="309" y="478" type="qcurve"/>
      <point x="215" y="478" type="line"/>
      <point x="215" y="361" type="line"/>
      <point x="306" y="361" type="line"/>
      <point x="326" y="361"/>
      <point x="350" y="387"/>
      <point x="362" y="425"/>
    </contour>
    <contour>
      <point x="489" y="258" type="qcurve"/>
      <point x="489" y="253"/>
      <point x="483" y="251" type="qcurve"/>
      <point x="464" y="241"/>
      <point x="403" y="225"/>
      <point x="381" y="220" type="qcurve"/>
      <point x="393" y="182"/>
      <point x="413" y="147" type="qcurve"/>
      <point x="420" y="134"/>
      <point x="434" y="108"/>
      <point x="442" y="96" type="qcurve"/>
      <point x="446" y="90"/>
      <point x="454" y="79"/>
      <point x="458" y="73" type="qcurve"/>
      <point x="460" y="71"/>
      <point x="460" y="66" type="qcurve"/>
      <point x="460" y="61"/>
      <point x="452" y="54"/>
      <point x="447" y="54" type="qcurve"/>
      <point x="438" y="54"/>
      <point x="401" y="76"/>
      <point x="365" y="102"/>
      <point x="356" y="108" type="qcurve"/>
      <point x="341" y="92"/>
      <point x="308" y="62"/>
      <point x="289" y="51" type="qcurve"/>
      <point x="202" y="3"/>
      <point x="101" y="3" type="qcurve"/>
      <point x="101" y="678" type="line"/>
      <point x="231" y="679" type="line"/>
      <point x="230" y="690"/>
      <point x="230" y="713"/>
      <point x="230" y="725" type="qcurve"/>
      <point x="230" y="832" type="line"/>
      <point x="239" y="832"/>
      <point x="280" y="830"/>
      <point x="329" y="827"/>
      <point x="368" y="823"/>
      <point x="374" y="820" type="qcurve"/>
      <point x="379" y="815"/>
      <point x="379" y="805" type="qcurve"/>
      <point x="379" y="796"/>
      <point x="361" y="761"/>
      <point x="335" y="722"/>
      <point x="310" y="688"/>
      <point x="304" y="679" type="qcurve"/>
      <point x="474" y="679" type="line"/>
      <point x="474" y="468" type="line"/>
      <point x="474" y="405"/>
      <point x="428" y="341"/>
      <point x="353" y="317"/>
      <point x="261" y="316"/>
      <point x="215" y="316" type="qcurve"/>
      <point x="215" y="111" type="line"/>
      <point x="241" y="115"/>
      <point x="298" y="137"/>
      <point x="321" y="150" type="qcurve"/>
      <point x="308" y="167"/>
      <point x="285" y="199"/>
      <point x="276" y="218" type="qcurve"/>
      <point x="314" y="244"/>
      <point x="387" y="300"/>
      <point x="420" y="332" type="qcurve"/>
      <point x="424" y="328"/>
      <point x="446" y="307"/>
      <point x="471" y="282"/>
      <point x="489" y="262"/>
    </contour>
    <contour>
      <point x="908" y="32" type="qcurve"/>
      <point x="908" y="-27"/>
      <point x="858" y="-87"/>
      <point x="796" y="-87" type="qcurve"/>
      <point x="772" y="-87"/>
      <point x="730" y="-69"/>
      <point x="710" y="-57" type="qcurve"/>
      <point x="704" y="-53"/>
      <point x="672" y="-32"/>
      <point x="636" y="-6"/>
      <point x="611" y="17"/>
      <point x="611" y="23" type="qcurve"/>
      <point x="611" y="27"/>
      <point x="618" y="29"/>
      <point x="621" y="29" type="qcurve"/>
      <point x="626" y="29"/>
      <point x="628" y="28" type="qcurve"/>
      <point x="659" y="16"/>
      <point x="716" y="-2"/>
      <point x="750" y="-2" type="qcurve"/>
      <point x="773" y="-2"/>
      <point x="788" y="33"/>
      <point x="788" y="51" type="qcurve"/>
      <point x="788" y="216"/>
      <point x="786" y="545"/>
      <point x="786" y="710" type="qcurve"/>
      <point x="652" y="710" type="line"/>
      <point x="652" y="667"/>
      <point x="652" y="581"/>
      <point x="653" y="538" type="qcurve"/>
      <point x="684" y="538" type="line"/>
      <point x="687" y="553"/>
      <point x="712" y="570"/>
      <point x="726" y="570" type="qcurve"/>
      <point x="741" y="570"/>
      <point x="768" y="547"/>
      <point x="768" y="531" type="qcurve"/>
      <point x="768" y="515"/>
      <point x="743" y="494"/>
      <point x="728" y="494" type="qcurve"/>
      <point x="654" y="494" type="line"/>
      <point x="654" y="469"/>
      <point x="655" y="419"/>
      <point x="655" y="393" type="qcurve"/>
      <point x="655" y="377"/>
      <point x="654" y="344"/>
      <point x="653" y="327" type="qcurve"/>
      <point x="683" y="327" type="line"/>
      <point x="688" y="341"/>
      <point x="714" y="359"/>
      <point x="728" y="359" type="qcurve"/>
      <point x="742" y="359"/>
      <point x="768" y="336"/>
      <point x="768" y="321" type="qcurve"/>
      <point x="768" y="305"/>
      <point x="742" y="285"/>
      <point x="728" y="285" type="qcurve"/>
      <point x="649" y="285" type="line"/>
      <point x="639" y="159"/>
      <point x="502" y="-25"/>
      <point x="387" y="-75" type="qcurve"/>
      <point x="377" y="-79"/>
      <point x="358" y="-86"/>
      <point x="347" y="-86" type="qcurve"/>
      <point x="337" y="-86"/>
      <point x="337" y="-76" type="qcurve"/>
      <point x="337" y="-71"/>
      <point x="344" y="-64"/>
      <point x="348" y="-62" type="qcurve"/>
      <point x="390" y="-33"/>
      <point x="463" y="39"/>
      <point x="486" y="85" type="qcurve"/>
      <point x="519" y="150"/>
      <point x="536" y="295"/>
      <point x="536" y="366" type="qcurve"/>
      <point x="536" y="463"/>
      <point x="532" y="656"/>
      <point x="530" y="753" type="qcurve"/>
      <point x="907" y="753" type="line"/>
      <point x="907" y="573"/>
      <point x="908" y="212"/>
    </contour>
  </outline>
</glyph>
